<svg xmlns="http://www.w3.org/2000/svg" xmlns:xlink="http://www.w3.org/1999/xlink" width="500" zoomAndPan="magnify" viewBox="0 0 375 374.999991" height="500" preserveAspectRatio="xMidYMid meet" version="1.2"><defs><clipPath id="e4df17700a"><path d="M 112.5 122.4375 L 262.5 122.4375 L 262.5 252.9375 L 112.5 252.9375 Z M 112.5 122.4375 "/></clipPath><clipPath id="2588f1d57e"><path d="M 142.726562 161.703125 L 144.175781 161.703125 L 144.175781 162.953125 L 142.726562 162.953125 Z M 142.726562 161.703125 "/></clipPath><clipPath id="dcb47909db"><path d="M 144.148438 162.148438 C 143.476562 163.199219 142.875 162.976562 142.800781 162.75 C 142.648438 162.523438 142.800781 161.925781 142.949219 161.773438 C 143.175781 161.625 143.925781 161.851562 143.925781 161.851562 "/></clipPath></defs><g id="fc05cfb7fb"><g clip-rule="nonzero" clip-path="url(#e4df17700a)"><path style=" stroke:none;fill-rule:nonzero;fill:#000000;fill-opacity:1;" d="M 125.828125 122.585938 C 125.898438 122.679688 126.21875 123.082031 126.539062 123.472656 C 128.820312 126.203125 130.542969 130.644531 131.464844 136.242188 C 132.078125 139.917969 132.109375 141.074219 132.109375 155.089844 L 132.109375 168.144531 L 125.859375 168.144531 C 120.144531 168.144531 119.484375 168.117188 118.359375 167.890625 C 116.496094 167.472656 114.890625 166.582031 113.542969 165.21875 C 112.570312 164.183594 112.601562 164.125 112.660156 167.261719 C 112.738281 169.855469 112.765625 170.140625 113.140625 171.558594 C 113.738281 173.777344 114.5625 175.453125 115.804688 176.9375 C 117.492188 178.980469 119.214844 180.121094 121.667969 180.882812 C 122.191406 181.035156 123.300781 181.097656 127.21875 181.125 L 132.113281 181.199219 L 132.113281 194.210938 L 125.214844 194.164062 L 118.285156 194.121094 L 117.089844 193.640625 C 115.667969 193.070312 115.027344 192.648438 113.632812 191.402344 L 112.617188 190.488281 L 112.675781 193.355469 C 112.75 196.011719 112.765625 196.308594 113.140625 197.660156 C 114.441406 202.433594 117.582031 205.839844 121.726562 206.949219 C 122.761719 207.234375 123.164062 207.25 127.492188 207.3125 L 132.113281 207.371094 L 132.113281 220.824219 C 132.113281 228.941406 132.066406 234.925781 131.992188 235.949219 C 131.917969 236.878906 131.679688 238.617188 131.46875 239.832031 C 130.496094 245.433594 128.746094 249.648438 126.234375 252.378906 L 125.722656 252.933594 L 151.027344 252.933594 C 166.152344 252.933594 177.464844 252.875 179.125 252.800781 C 182.042969 252.648438 188.550781 252.003906 190.019531 251.6875 C 190.480469 251.597656 191.347656 251.476562 191.917969 251.375 C 193.132812 251.191406 195.132812 250.773438 198.023438 250.039062 C 201.941406 249.066406 205.746094 247.757812 209.433594 246.113281 C 210.570312 245.605469 213.832031 243.9375 214.699219 243.414062 C 215.164062 243.144531 215.71875 242.8125 215.929688 242.707031 C 216.957031 242.109375 217.949219 241.453125 218.90625 240.742188 C 219.609375 240.234375 220.3125 239.738281 220.460938 239.632812 C 221.089844 239.214844 223.257812 237.398438 224.246094 236.480469 C 227.917969 233.125 231.03125 229.308594 233.582031 225.03125 C 233.925781 224.429688 234.378906 223.683594 234.570312 223.367188 C 235.066406 222.527344 237.097656 218.324219 237.292969 217.695312 C 237.355469 217.46875 237.445312 217.253906 237.5625 217.050781 C 237.953125 216.542969 240.195312 209.457031 240.464844 207.914062 C 240.558594 207.417969 240.601562 207.34375 240.972656 207.269531 C 241.214844 207.222656 244.703125 207.222656 248.726562 207.253906 C 256.777344 207.3125 256.777344 207.3125 258.554688 208.136719 C 259.558594 208.601562 259.859375 208.8125 260.964844 209.816406 C 262.414062 211.125 262.28125 211.335938 262.191406 208.0625 C 262.132812 206.140625 262.058594 204.957031 261.921875 204.476562 C 261.414062 202.628906 261.292969 202.242188 260.851562 201.3125 C 259.382812 198.089844 256.933594 195.804688 253.785156 194.707031 L 252.554688 194.257812 L 247.5625 194.1875 L 242.578125 194.113281 L 242.640625 192.355469 C 242.699219 190.042969 242.699219 185.46875 242.625 183.117188 L 242.5625 181.226562 L 249.234375 181.199219 C 254.953125 181.167969 256.015625 181.199219 256.644531 181.363281 C 258.527344 181.886719 259.800781 182.609375 261.355469 184.035156 L 262.226562 184.84375 L 262.226562 182.625 C 262.226562 179.984375 262.089844 178.8125 261.550781 177.074219 C 260.480469 173.546875 258.394531 170.921875 255.402344 169.300781 C 253.457031 168.25 253.335938 168.226562 246.648438 168.175781 C 242.730469 168.144531 240.675781 168.085938 240.574219 167.996094 C 240.476562 167.894531 240.417969 167.773438 240.410156 167.632812 C 240.273438 166.929688 240.097656 166.234375 239.882812 165.546875 C 236.386719 153.132812 229.855469 143.273438 220.289062 135.972656 C 218.988281 134.964844 215.800781 132.847656 214.503906 132.128906 C 214.007812 131.84375 213.472656 131.542969 213.335938 131.453125 C 212.707031 131.109375 209.101562 129.335938 208.195312 128.964844 C 207.65625 128.722656 206.953125 128.421875 206.640625 128.300781 C 201.359375 126.007812 192.503906 123.832031 185.738281 123.144531 C 184.628906 123.042969 183.167969 122.878906 182.488281 122.816406 C 179.445312 122.484375 175.21875 122.4375 151.171875 122.4375 C 130.855469 122.4375 125.753906 122.484375 125.828125 122.585938 Z M 175.308594 129.097656 C 180.367188 129.394531 183.480469 129.785156 187.117188 130.671875 C 198.21875 133.300781 206.027344 138.882812 211.699219 148.214844 C 212.222656 149.074219 214.4375 153.617188 214.765625 154.53125 C 216.335938 158.78125 217.101562 161.300781 217.765625 164.628906 C 217.929688 165.4375 218.152344 166.519531 218.257812 167.03125 C 218.363281 167.542969 218.410156 167.992188 218.363281 168.035156 C 218.320312 168.082031 203.265625 168.125 184.949219 168.113281 L 151.65625 168.082031 L 151.609375 148.796875 C 151.597656 138.203125 151.609375 129.394531 151.65625 129.230469 L 151.714844 128.945312 L 162.355469 128.945312 C 168.191406 128.945312 174.023438 129.007812 175.296875 129.082031 Z M 219.824219 181.660156 C 219.929688 182.304688 219.929688 193.261719 219.824219 193.800781 L 219.734375 194.203125 L 185.695312 194.175781 L 151.667969 194.132812 L 151.640625 187.769531 C 151.609375 184.273438 151.640625 181.359375 151.667969 181.300781 C 151.699219 181.242188 166.214844 181.179688 185.738281 181.179688 L 219.734375 181.179688 Z M 218.296875 207.425781 C 218.371094 207.640625 218.015625 209.496094 217.28125 212.5 C 216.441406 215.875 215.304688 219.28125 214.152344 221.800781 C 213.585938 223.089844 212.164062 225.882812 211.820312 226.40625 C 211.65625 226.648438 211.175781 227.414062 210.75 228.089844 C 207.882812 232.515625 204.242188 236.160156 199.824219 239.027344 C 198.226562 240.046875 194.933594 241.789062 194.042969 242.058594 C 193.878906 242.097656 193.730469 242.164062 193.589844 242.253906 C 193.488281 242.34375 192.125 242.855469 190.539062 243.425781 C 187.621094 244.460938 182.070312 245.585938 177.613281 246.050781 C 174.726562 246.335938 174.261719 246.351562 163.144531 246.351562 L 151.652344 246.351562 L 151.652344 207.402344 L 184.707031 207.339844 C 202.886719 207.3125 217.863281 207.265625 217.984375 207.234375 C 218.128906 207.226562 218.234375 207.285156 218.296875 207.417969 Z M 218.296875 207.425781 "/></g><g clip-rule="nonzero" clip-path="url(#2588f1d57e)"><g clip-rule="nonzero" clip-path="url(#dcb47909db)"><path style=" stroke:none;fill-rule:nonzero;fill:#000000;fill-opacity:1;" d="M 139.800781 158.773438 L 147.21875 158.773438 L 147.21875 166.050781 L 139.800781 166.050781 Z M 139.800781 158.773438 "/></g></g></g></svg>