<svg width="125" height="40" viewBox="0 0 125 40" fill="none" xmlns="http://www.w3.org/2000/svg">
<g clip-path="url(#clip0_1383_20454)">
    <!-- #9a312b -->
<path d="M10.9306 11.4382V39.797H0V0H14.2132C20.4399 0 25.3469 1.52284 28.8663 4.60237C33.0626 8.25719 35.1607 13.2657 35.1607 19.5601C35.1607 25.5838 33.3672 30.4907 29.78 34.3147C26.1929 38.1388 21.5905 40.0338 15.9391 40.0338C15.2623 40.0338 14.1794 40 12.6904 39.8985V28.1895H14.4501C20.8122 28.1895 23.9932 25.313 23.9932 19.5262C23.9932 14.1117 20.8799 11.4044 14.6193 11.4044H10.9306V11.4382Z" fill="#fa4238"/>
<path d="M65.0762 39.797L71.5736 28.4941L78.1049 39.797H65.0762Z" fill="#98989A"/>
<path d="M99.5598 39.7631L108.257 39.797C110.355 39.797 112.216 39.9323 113.807 39.7293C115.397 39.5262 116.785 39.154 118.003 38.6464C119.932 37.8004 121.489 36.4806 122.606 34.687C123.756 32.8934 124.331 30.8968 124.331 28.6633C124.331 23.8579 121.726 20.6092 116.48 18.9509C120.474 17.0897 122.436 14.1794 122.436 10.22C122.436 9.06939 122.267 7.95264 121.861 6.93741C121.489 5.88834 120.947 4.9408 120.203 4.09477C119.458 3.24875 118.646 2.53809 117.699 1.96279C116.582 1.28597 115.33 0.846042 113.942 0.609155C112.555 0.372269 110.897 0.270746 109.001 0.270746H99.4921V0.203064H88.7646L88.5615 39.8308M104.737 7.1743C107.174 7.1743 108.968 7.44503 110.152 7.98648C111.336 8.52794 111.912 9.64469 111.912 11.3029C111.912 12.0812 111.709 12.7919 111.336 13.401C110.863 14.2809 110.152 14.89 109.272 15.1946C108.358 15.4992 107.073 15.6684 105.414 15.6684H99.526V7.1743H104.737ZM106.497 32.9949H99.526V23.3503H106.294C108.629 23.3503 110.389 23.7225 111.54 24.5009C112.724 25.2454 113.299 26.4636 113.299 28.1218C113.299 31.3706 111.032 32.9949 106.497 32.9949Z" fill="#98989A"/>
<path d="M36.9883 0.304565H47.9189V25.0085C47.9189 26.7005 48.1896 27.8511 48.7311 28.4264C49.2725 29.0017 50.3555 29.2724 51.9798 29.2724H52.5551L52.8258 39.8308H49.7463C45.4147 40 42.572 38.7817 40.3385 36.4467C38.105 34.1117 36.9883 30.8968 36.9883 26.7682V0.304565Z" fill="#98989A"/>
<path d="M95.5329 39.797L79.8984 0.372253H63.3163V0.406094L47.6479 39.797L59.3231 39.8646L71.6073 8.96785L83.8578 39.8646L95.5329 39.797Z" fill="#98989A"/>
</g>
<defs>
<clipPath id="clip0_1383_20454">
<rect width="124.332" height="40" fill="white"/>
</clipPath>
</defs>
</svg>
